<svg xmlns="http://www.w3.org/2000/svg" width="15.695" height="15.75" viewBox="0 0 15.695 15.75">
  <g id="_36" transform="translate(-553.61 -389.07)">
    <path id="路径_2750" d="M560,390.16a3.73,3.73,0,1,0-5.27,5.28c.65.65,2,1,3.93,1,.69,0,1.28-.05,1.63-.08.14-.01.24-.02.29-.02l.27-.03.03-.29C560.89,395.98,561.47,391.63,560,390.16Zm.21,5.34-.01.13-.12.01a13.949,13.949,0,0,1-1.41.07c-1.3,0-2.82-.17-3.44-.79a2.973,2.973,0,0,1-.88-2.12,3.013,3.013,0,0,1,3.01-3.01h.01a3,3,0,0,1,2.12.87C560.27,391.43,560.37,393.75,560.21,395.5Zm8-5.34a3.736,3.736,0,0,0-5.27,0c-1.23,1.23-1.07,4.65-.9,5.86l.03.29.29.03c.06,0,.18.01.34.02.37.03.94.08,1.59.08,1.34,0,3.1-.18,3.92-1a3.742,3.742,0,0,0,0-5.28Zm-.5,4.77c-.58.58-2.03.78-3.46.78-.47,0-.95-.02-1.39-.06l-.114-.023-.016-.107c-.13-1.4-.13-3.99.73-4.85a2.974,2.974,0,0,1,2.11-.88h.02a3.012,3.012,0,0,1,2.12,5.14Zm-6.82,2.93-.04-.28-.28-.04c-1.37-.14-4.63-.33-5.86.9a3.787,3.787,0,0,0-1.1,2.66,3.748,3.748,0,0,0,3.55,3.72h.23a3.654,3.654,0,0,0,2.61-1.1C561.22,402.49,561.05,399.07,560.89,397.86Zm-1.4,5.37a3.031,3.031,0,0,1-4.21,0,3.016,3.016,0,0,1-.9-2.12,2.986,2.986,0,0,1,.87-2.13c.68-.68,2.47-.79,3.47-.79h.36v.01c.36.01.7.02,1,.04l.12.01.01.13C560.35,399.67,560.37,402.36,559.49,403.23Zm8.72-4.77c-1.48-1.47-5.81-.9-5.86-.9l-.28.04-.03.28c-.12,1.07-.38,4.59.9,5.86a3.7,3.7,0,0,0,2.63,1.08h.03a3.676,3.676,0,0,0,2.61-1.08A3.73,3.73,0,0,0,568.21,398.46Zm-.51,4.84a3.019,3.019,0,0,1-4.25-.07c-.78-.78-.87-3.1-.72-4.85l.01-.13.12-.01c.39-.03,3.8-.29,4.84.73l.08.08A3,3,0,0,1,567.7,403.3Z" fill=""/>
  </g>
</svg>
