<svg xmlns="http://www.w3.org/2000/svg" width="28" height="22.281" viewBox="0 0 28 22.281">
  <path id="路径_1105" class="cls-1" d="M27.937,79.083c-.4-1.552-2.53-1.311-3.551-1.088-.957-2.2-2.553-4.8-4.739-4.8H8.461c-2.45,0-4.031,2.378-4.967,4.6C2.445,77.587.444,77.41.056,78.909S1.288,81.374,2.2,81.782A17.256,17.256,0,0,0,.467,87.529a7.853,7.853,0,0,0,.831,3.6v2.866a1.628,1.628,0,0,0,.349,1.06,1.192,1.192,0,0,0,.944.426h2.14a1.175,1.175,0,0,0,.926-.413,1.5,1.5,0,0,0,.364-1.042V92.368H22.144V94a1.63,1.63,0,0,0,.349,1.062,1.164,1.164,0,0,0,.934.418H25.24a1.165,1.165,0,0,0,.926-.41,1.485,1.485,0,0,0,.357-1.044V91.349a6.408,6.408,0,0,0,.854-3.846,14.47,14.47,0,0,0-1.457-5.608c.936-.439,2.391-1.37,2.017-2.812ZM8.461,74.6H19.647c2.14,0,3.882,4.331,4.5,6.4H3.748C4.23,79.114,5.677,74.6,8.461,74.6ZM1.244,79.3a2.128,2.128,0,0,1,1.75-.174c-.164.493-.3.942-.393,1.311A2.13,2.13,0,0,1,1.244,79.3ZM25.569,90.459l-.28.131v3.479a.116.116,0,0,1-.041.008H23.391a.155.155,0,0,1,0-.049V90.964H4.785v3.1a.213.213,0,0,1-.054.015H2.54a.14.14,0,0,1,0-.046V90.7l-.115-.185a6.129,6.129,0,0,1-.713-2.981,16.12,16.12,0,0,1,1.6-5.111H24.768a13.251,13.251,0,0,1,1.38,5.09,4.894,4.894,0,0,1-.58,2.943Zm-.221-9.816q-.2-.67-.436-1.324a2.243,2.243,0,0,1,1.834.162,2.185,2.185,0,0,1-1.4,1.162ZM22.2,83.534a2.361,2.361,0,0,0-2.186,1.616,2.884,2.884,0,0,0,.5,2.886,2.169,2.169,0,0,0,2.566.582,2.666,2.666,0,0,0,1.457-2.442,2.506,2.506,0,0,0-2.327-2.643Zm0,3.879a1.106,1.106,0,0,1-1.026-.754,1.352,1.352,0,0,1,.231-1.352,1.015,1.015,0,0,1,1.2-.275,1.244,1.244,0,0,1,.682,1.144A1.171,1.171,0,0,1,22.2,87.414H22.2ZM9.68,89.43h8.687V88.024H9.68V89.43Zm-4.013-5.9a2.361,2.361,0,0,0-2.186,1.616,2.884,2.884,0,0,0,.5,2.886,2.169,2.169,0,0,0,2.566.582A2.666,2.666,0,0,0,8,86.177a2.5,2.5,0,0,0-2.335-2.643Zm0,3.879a1.1,1.1,0,0,1-1.021-.757,1.353,1.353,0,0,1,.233-1.35,1.015,1.015,0,0,1,1.2-.275,1.243,1.243,0,0,1,.682,1.142,1.311,1.311,0,0,1-.318.875A1.053,1.053,0,0,1,5.667,87.414Zm4.013-.546h8.687V85.461H9.68Zm0,0" transform="translate(0.003 -73.2)"/>
</svg>
