<svg xmlns="http://www.w3.org/2000/svg" width="14" height="14" viewBox="0 0 14 14">
  <path id="路径_1232" class="cls-1" d="M59.878,63.33H55.643a1.072,1.072,0,0,1-1.083-1.089q0-4.223,0-8.446a1.073,1.073,0,0,1,1.09-1.09H64.1a1.073,1.073,0,0,1,1.091,1.1q0,3.117,0,6.234,0,1.1,0,2.2a1.078,1.078,0,0,1-.895,1.077,1,1,0,0,1-.18.012H59.878Zm-.006-.873h3.821a2.527,2.527,0,0,0,.3-.019.3.3,0,0,0,.3-.284,2.481,2.481,0,0,0,.027-.369q0-3.768,0-7.537,0-.153-.015-.3a.32.32,0,0,0-.313-.344,1.678,1.678,0,0,0-.274-.021q-3.843,0-7.686,0a1.874,1.874,0,0,0-.3.027.285.285,0,0,0-.269.27,2.8,2.8,0,0,0-.029.4q0,3.747,0,7.493c0,.1.006.2.014.3.021.249.108.341.352.37a2.249,2.249,0,0,0,.267.015h3.807Zm-3.363,4.249H52.275A1.072,1.072,0,0,1,51.2,65.628q0-4.233,0-8.467a1.072,1.072,0,0,1,1.078-1.08H53.31a.436.436,0,1,1,0,.871c-.282,0-.565.009-.847.013h-.022c-.242.023-.34.12-.363.369q-.015.156-.015.312,0,3.746,0,7.492a2.8,2.8,0,0,0,.027.383.3.3,0,0,0,.3.29,2.419,2.419,0,0,0,.289.019H60.34a2.226,2.226,0,0,0,.26-.016.325.325,0,0,0,.34-.356c.014-.254.014-.509.016-.763a.441.441,0,0,1,.449-.465.456.456,0,0,1,.43.5c-.011.3,0,.6-.005.894a1.073,1.073,0,0,1-.718,1.017,1.1,1.1,0,0,1-.347.058c-1.419,0-2.837,0-4.256,0Zm2.827-8.183H57.26a.5.5,0,0,1-.124-.991.631.631,0,0,1,.151-.015h2.049V55.455a.5.5,0,1,1,1.006,0q0,.982,0,1.964v.1h2.079a.5.5,0,0,1,.49.421.5.5,0,0,1-.346.561.587.587,0,0,1-.164.023q-.983,0-1.965,0h-.094v.092c0,.66,0,1.319,0,1.979a.5.5,0,1,1-1.006,0V58.522Zm0,0" transform="translate(-51.195 -52.706)"/>
</svg>
