<svg xmlns="http://www.w3.org/2000/svg" width="14" height="13.484" viewBox="0 0 14 13.484">
  <path id="路径_1239" class="cls-1" d="M102.742,105.9a.519.519,0,0,0-.519.519v1.556a.519.519,0,0,0,1.037,0v-1.556A.519.519,0,0,0,102.742,105.9Zm-2.9-5.22a.207.207,0,0,0,.147.061h2.231v3.6a.519.519,0,1,0,1.037,0v-3.6h2.267a.207.207,0,0,0,.147-.354l-2.767-2.767a.207.207,0,0,0-.294,0l-2.767,2.767a.207.207,0,0,0,0,.294Zm9.061-2.129-2.823-1.4a.519.519,0,0,0-.46.93l2.823,1.4v8.15l-5.7,2.391-5.7-2.391v-8.15l2.823-1.4a.519.519,0,1,0-.459-.93l-2.823,1.4a1.032,1.032,0,0,0-.578.93v8.15a1.034,1.034,0,0,0,.636.956l5.906,2.475a.517.517,0,0,0,.4,0l5.9-2.474a1.035,1.035,0,0,0,.636-.957v-8.15a1.032,1.032,0,0,0-.577-.93Z" transform="translate(111.097 -96) rotate(90)"/>
</svg>
