<svg xmlns="http://www.w3.org/2000/svg" width="13.737" height="14" viewBox="0 0 13.737 14">
  <path id="路径_1241" class="cls-1" d="M86.236,65.842A1.845,1.845,0,0,0,84.394,64H74.342A1.844,1.844,0,0,0,72.5,65.842V76.158A1.844,1.844,0,0,0,74.342,78h8.573a.5.5,0,0,0,0-1.008H74.342a.837.837,0,0,1-.836-.836V65.842a.837.837,0,0,1,.836-.836H84.394a.837.837,0,0,1,.836.836v8.795a.5.5,0,0,0,1.008,0V65.842Zm-3.761,7.479a4.031,4.031,0,1,0-.717.706L84.47,76.74a.5.5,0,0,0,.711,0l0,0a.5.5,0,0,0,0-.713Zm-6.2-2.5A3.033,3.033,0,1,1,79.3,73.85,3.037,3.037,0,0,1,76.271,70.816Z" transform="translate(-72.5 -64)"/>
</svg>
