<svg xmlns="http://www.w3.org/2000/svg" width="13.444" height="14" viewBox="0 0 13.444 14">
  <g id="组_1645" transform="translate(-72.871 -448.188)">
    <path id="路径_1145" class="cls-1" d="M86.467,465a2.667,2.667,0,1,1,2.667-2.667A2.67,2.67,0,0,1,86.467,465Zm0-4.6a1.935,1.935,0,1,0,1.936,1.935A1.938,1.938,0,0,0,86.467,460.4Zm6.555,5.48H87.757a.342.342,0,0,1-.341-.341v-.05a.342.342,0,0,1,.341-.341h5.265a.342.342,0,0,1,.341.341v.05A.34.34,0,0,1,93.022,465.878Zm0,1.875H87.763a.347.347,0,0,1-.347-.346v-.051a.347.347,0,0,1,.347-.346h5.254a.347.347,0,0,1,.347.346v.051A.347.347,0,0,1,93.018,467.753Zm0,1.839H87.759a.343.343,0,0,1-.342-.343V469.2a.343.343,0,0,1,.342-.342h5.262a.343.343,0,0,1,.342.342v.05A.342.342,0,0,1,93.021,469.592Z" transform="translate(-7.05 -7.404)"/>
    <path id="路径_1146" class="cls-1" d="M78.528,461.285a.153.153,0,0,1-.152-.152v-1.306l-.266-.076a4.854,4.854,0,0,1-2.05-1.188l-.2-.192-1.135.656a.156.156,0,0,1-.114.015.147.147,0,0,1-.092-.07l-.9-1.555a.151.151,0,0,1,.055-.206l1.136-.656-.067-.268a4.886,4.886,0,0,1,0-2.367l.067-.268L73.678,453a.151.151,0,0,1-.055-.207l.9-1.555a.147.147,0,0,1,.092-.07.155.155,0,0,1,.114.015l1.131.654.2-.193a4.831,4.831,0,0,1,2.052-1.191l.266-.076v-1.3a.153.153,0,0,1,.152-.152h1.8a.153.153,0,0,1,.152.152v1.295l.268.075a4.845,4.845,0,0,1,2.064,1.189l.2.193,1.119-.647a.153.153,0,0,1,.114-.015.146.146,0,0,1,.092.07l.9,1.555a.155.155,0,0,1,.015.114.148.148,0,0,1-.07.092l-1.118.645.067.268a4.857,4.857,0,0,1,.148,1.191,4.8,4.8,0,0,1-.149,1.2l-.069.268.724.418H85.9a.877.877,0,0,0-.364-.405l-.645-.373h0a5.588,5.588,0,0,0,0-2.2h0l.644-.372a.885.885,0,0,0,.323-1.206l-.9-1.555a.884.884,0,0,0-1.207-.323l-.646.373h0a5.608,5.608,0,0,0-1.9-1.1h0v-.747a.884.884,0,0,0-.884-.884H78.528a.884.884,0,0,0-.884.884v.753h0a5.572,5.572,0,0,0-1.893,1.1h0l-.658-.38a.885.885,0,0,0-1.207.323l-.9,1.557a.884.884,0,0,0,.323,1.207l.661.382h0a5.591,5.591,0,0,0,0,2.183h0l-.663.383a.88.88,0,0,0-.323,1.2l.9,1.555a.882.882,0,0,0,.537.411.872.872,0,0,0,.67-.088l.663-.382h0a5.587,5.587,0,0,0,1.889,1.094h0v.761a.884.884,0,0,0,.884.884h.919v-.732Z"/>
  </g>
</svg>
