<svg xmlns="http://www.w3.org/2000/svg" width="27.998" height="27.622" viewBox="0 0 27.998 27.622">
  <g id="组_1603" class="cls-1" transform="translate(-363.512 -334.988)">
    <path id="路径_1096" class="cls-2" d="M388.864,360.6a3.05,3.05,0,1,0,3.05,3.05A3.05,3.05,0,0,0,388.864,360.6Zm0,4.34a1.29,1.29,0,1,1,1.289-1.29A1.291,1.291,0,0,1,388.864,364.94Z" transform="translate(-12.485 -14.338)"/>
    <path id="路径_1097" class="cls-2" d="M378.39,352.4a3.585,3.585,0,0,1-4.511-.035c-.686.525-2.518,2.035-2.317,3.053,0,0,.073,1.207,2.013,1.259a.937.937,0,0,1,.546-.107h-6.566V344.378l8.772-7.361L384.646,344v5.36c.094-.006.191-.006.285-.006h.009a6.745,6.745,0,0,1,1.45.158v-4.049l1.258,1.056a.88.88,0,0,0,1.132-1.349L376.9,335.195l-.006,0a.838.838,0,0,0-.125-.085l-.018-.012a.893.893,0,0,0-.422-.106.87.87,0,0,0-.562.2L363.826,345.21a.879.879,0,0,0,.567,1.553.873.873,0,0,0,.565-.205l.853-.716v11.6a.871.871,0,0,0,.871.868h11.844a6.836,6.836,0,0,1-.354-1.736v-.022c-.01-.146-.017-.3-.017-.447a6.676,6.676,0,0,1,.8-3.185Zm-1.954,4.172h-2.272l.043-1.734c-.234-.011-.4-.024-.477-.029.1-.1.2-.211.327-.327a5.326,5.326,0,0,0,2.1.432c.116,0,.233,0,.349-.011a8.31,8.31,0,0,0-.085,1.2C376.421,356.246,376.426,356.4,376.436,356.571Z" transform="translate(0 0)"/>
    <path id="路径_1098" class="cls-2" d="M411.951,380.98l-1.842-1.842a5.354,5.354,0,1,0-1.288,1.2l1.884,1.885a.881.881,0,0,0,1.245-1.245Zm-3.214-2.9-.377.488-.5.329a3.676,3.676,0,1,1,.873-.817Z" transform="translate(-20.698 -19.872)"/>
  </g>
</svg>
