<svg xmlns="http://www.w3.org/2000/svg" width="22.745" height="22.742" viewBox="0 0 22.745 22.742">
  <g id="公有" transform="translate(-127.719 -127.529)">
    <path id="路径_2892" d="M403.8,406.721a3.3,3.3,0,1,1,3.3-3.3A3.3,3.3,0,0,1,403.8,406.721Zm0-5.336a2.038,2.038,0,1,0,2.038,2.038A2.041,2.041,0,0,0,403.8,401.385Z" transform="translate(-264.704 -264.52)"/>
    <path id="路径_2893" d="M141.172,147.4l-.719-1.039a23.536,23.536,0,0,0,3.236-2.714,19.915,19.915,0,0,0,5.064-7.916c.766-2.509.539-4.536-.634-5.712a4.018,4.018,0,0,0-2.821-1.072,10.274,10.274,0,0,0-4.135.887l-.483-1.168a11.507,11.507,0,0,1,4.66-.982,5.307,5.307,0,0,1,3.674,1.443,5.053,5.053,0,0,1,1.4,3.082,9.634,9.634,0,0,1-.449,3.89,21.221,21.221,0,0,1-5.378,8.44,25.526,25.526,0,0,1-3.416,2.86Zm-8.09,3.017c-.073,0-.143,0-.213,0a5.312,5.312,0,0,1-3.7-1.443,5.053,5.053,0,0,1-1.4-3.082,9.634,9.634,0,0,1,.449-3.89,21.221,21.221,0,0,1,5.378-8.44,24.873,24.873,0,0,1,3.228-2.731l.73,1.03a24.01,24.01,0,0,0-3.065,2.594,19.914,19.914,0,0,0-5.064,7.916c-.766,2.509-.539,4.536.634,5.712a4.029,4.029,0,0,0,2.843,1.075,10.368,10.368,0,0,0,4.171-.912l.488,1.165a11.9,11.9,0,0,1-4.477,1.01Z" transform="translate(0 -0.144)"/>
    <path id="路径_2894" d="M146.453,137.538a23.535,23.535,0,0,0-2.714-3.236,19.914,19.914,0,0,0-7.916-5.064c-2.507-.766-4.536-.539-5.712.634a4.018,4.018,0,0,0-1.072,2.821,10.274,10.274,0,0,0,.887,4.135l-1.168.483a11.507,11.507,0,0,1-.982-4.66,5.307,5.307,0,0,1,1.443-3.674,5.053,5.053,0,0,1,3.082-1.4,9.634,9.634,0,0,1,3.89.449,21.221,21.221,0,0,1,8.44,5.378,24.965,24.965,0,0,1,2.86,3.41l-1.039.724Zm-1.316,12.732a10.512,10.512,0,0,1-3.048-.5,21.221,21.221,0,0,1-8.441-5.378,24.876,24.876,0,0,1-2.731-3.228l1.03-.73a24.015,24.015,0,0,0,2.594,3.065,19.915,19.915,0,0,0,7.916,5.064,9.33,9.33,0,0,0,2.689.446,4.133,4.133,0,0,0,3.023-1.081,4.029,4.029,0,0,0,1.075-2.843,10.367,10.367,0,0,0-.912-4.171l1.165-.488a11.63,11.63,0,0,1,1.011,4.693,5.312,5.312,0,0,1-1.443,3.7,5.053,5.053,0,0,1-3.082,1.4A8.339,8.339,0,0,1,145.137,150.271Z" transform="translate(-0.051 0)"/>
  </g>
</svg>
