<svg xmlns="http://www.w3.org/2000/svg" width="28" height="27.998" viewBox="0 0 28 27.998">
  <path id="路径_1119" class="cls-1" d="M1020.5,307.455a7.935,7.935,0,1,1-7.541,5.4,7.846,7.846,0,0,1,7.539-5.4Zm0,14a6.067,6.067,0,1,0-6.066-6.066h0A6.066,6.066,0,0,0,1020.5,321.454Zm-1.223-16.7-2.27,1.32a.881.881,0,0,1-1.207-.324h0a.88.88,0,0,1,.321-1.2l2.27-1.32a.88.88,0,0,1,1.207.324h0A.881.881,0,0,1,1019.28,304.755Zm11.318,14.55h-.105a.88.88,0,0,1-.881-.881v-2.9a.88.88,0,0,1,.881-.881h.105a.881.881,0,0,1,.881.881v2.9A.881.881,0,0,1,1030.6,319.305Zm-11.307-21.312.091-.053a.88.88,0,0,1,1.2.322l1.453,2.516a.88.88,0,0,1-.322,1.2l-.092.053a.88.88,0,0,1-1.2-.322l-1.453-2.516A.88.88,0,0,1,1019.291,297.993Zm5.412,5.262a7.935,7.935,0,1,1,5.4,7.541,7.847,7.847,0,0,1-5.4-7.541Zm7.932,6.066a6.067,6.067,0,1,0-6.066-6.066h0A6.066,6.066,0,0,0,1032.635,309.321Zm4.859,5.009h0a.88.88,0,0,1-.878.877l-2.624.009a.88.88,0,0,1-.883-.884h0a.88.88,0,0,1,.878-.877l2.625-.009A.88.88,0,0,1,1037.495,314.33Z" transform="translate(-1012.569 -295.322)"/>
</svg>
