<svg xmlns="http://www.w3.org/2000/svg" width="20.151" height="20.22" viewBox="0 0 20.151 20.22">
  <path id="路径_4701" d="M8.855,1.493a.878.878,0,0,1,.864.864V6.674a.878.878,0,0,1-.864.864H3.529a.878.878,0,0,1-.864-.864V2.356a.878.878,0,0,1,.864-.864H8.855m0-1.324H3.529A2.2,2.2,0,0,0,1.341,2.284V6.6A2.2,2.2,0,0,0,3.529,8.819H8.855a2.2,2.2,0,0,0,2.188-2.188V2.313A2.2,2.2,0,0,0,8.855.053Zm10.507,12.7a.878.878,0,0,1,.864.864v4.318a.878.878,0,0,1-.864.864H14.036a.878.878,0,0,1-.864-.864V13.727a.878.878,0,0,1,.864-.864h5.311m0-1.324H14.036a2.2,2.2,0,0,0-2.188,2.188v4.318A2.2,2.2,0,0,0,14.036,20.2h5.311a2.2,2.2,0,0,0,2.145-2.13V13.756a2.2,2.2,0,0,0-2.13-2.188Zm.576-4.174a7.8,7.8,0,0,0-2.361-5.873A6.722,6.722,0,0,0,12.5.053a.729.729,0,0,0,.23,1.439,5.369,5.369,0,0,1,3.915,1.094,6.434,6.434,0,0,1,1.842,4.75H17.045l2.2,2.792,2.245-2.764Zm-9.8,11.4a5.311,5.311,0,0,1-3.9-1.08,6.42,6.42,0,0,1-1.857-4.678H5.8L3.6,10.129l-2.26,2.879H2.924a7.816,7.816,0,0,0,2.361,5.757A6.52,6.52,0,0,0,9.517,20.2a5.657,5.657,0,0,0,.835,0,.729.729,0,0,0-.23-1.439Z" transform="translate(-1.341 0)"/>
</svg>
