<svg xmlns="http://www.w3.org/2000/svg" width="28" height="28" viewBox="0 0 28 28">
  <path id="路径_1088" class="cls-1" d="M174.365,12.8h-6.933V5.88a1.756,1.756,0,0,0-1.756-1.756h-15.8a1.756,1.756,0,0,0-1.756,1.756V21.687a1.756,1.756,0,0,0,1.756,1.756h6.933v6.924a1.756,1.756,0,0,0,1.756,1.756h15.8a1.756,1.756,0,0,0,1.756-1.756V14.561A1.756,1.756,0,0,0,174.365,12.8Zm0,2.4-.645-.645h.645ZM159.694,30.368l-1.129-1.13v-.927l2.057,2.057Zm-1.129-2.992v-.931l3.922,3.924h-.931Zm0-1.866v-.931l5.787,5.789h-.931Zm0-1.866v-.2h.731l6.922,6.924h-.931Zm-7.055-1.957-1.633-1.634v-.927l2.561,2.562Zm-1.633-3.5v-.931l4.426,4.428h-.931Zm0-1.866v-.931l6.292,6.294h-.931Zm0-3.733V11.66l6.93,6.933v-.935l-6.93-6.933V9.789l6.93,6.933v-.931l-6.93-6.933V7.966l6.933,6.936v6.492l-6.933-6.936v-.931l6.93,6.933v-.935Zm15.8-5.635V7.88l-2-2h.924Zm0,1.859v.931L161.812,5.88h.931Zm0,1.866v.931l-5.73-5.732h.931Zm0,1.866V12.8h-.712L158.043,5.88h.969Zm-1.647.257H163.1L156.177,5.88h.931Zm-1.857,0h-.931L154.32,5.88h.931Zm-1.866,0h-.931L152.455,5.88h.931Zm-1.854.011a1.729,1.729,0,0,0-.725.21L150.585,5.88h.935Zm-1.235.631a1.74,1.74,0,0,0-.325.606l-7.017-7.02V6.1Zm1.347,1.114h7.112v7.126h-7.112Zm1.666,8.883h.931l6.922,6.924h-.931Zm1.857,0h.931l6.922,6.924h-.931Zm1.866,0h.931l6.922,6.924h-.931Zm1.86-.005h-.086a1.733,1.733,0,0,0,.774-.209l7.137,7.139h-.9Zm1.2-.627a1.741,1.741,0,0,0,.33-.6l7.021,7.024v.931Zm.418-1.446v-.931l6.933,6.936V28.3Zm0-1.862v-.936l6.933,6.936v.936Zm0-1.87V16.7l6.933,6.936v.931Zm0-1.867V14.8l6.933,6.936V22.7Zm.7-1.206h.931l5.3,5.306V20.8Zm1.866,0h.931L174.365,18v.931Zm1.865,0h.924l1.58,1.581v.924Zm-6.185-8.54-.141-.141h.141Zm-15.8,14.966.7.7h-.7Zm8.688,9.186.195.195h-.195Z" transform="translate(-148.121 -4.124)"/>
</svg>
