<svg xmlns="http://www.w3.org/2000/svg" width="25.244" height="28" viewBox="0 0 25.244 28">
  <g id="组_1601" class="cls-1" transform="translate(-581.788 -289.982)">
    <path id="路径_1085" class="cls-2" d="M606.991,337.924a3.4,3.4,0,0,0-3.39-2.8H585.195a1.769,1.769,0,0,1-1.785-1.546,1.72,1.72,0,0,1,1.709-1.89h3.416a.807.807,0,0,0,0-1.614h-3.316a3.4,3.4,0,0,0-3.39,2.8,3.34,3.34,0,0,0,3.289,3.86h18.508a1.77,1.77,0,0,1,1.785,1.546,1.719,1.719,0,0,1-1.709,1.889h-15.7a.807.807,0,0,0,0,1.614h15.7A3.34,3.34,0,0,0,606.991,337.924Z" transform="translate(0 -23.802)"/>
    <path id="路径_1086" class="cls-2" d="M608.523,303.888a2.976,2.976,0,1,0-2.976-2.976A2.976,2.976,0,0,0,608.523,303.888Zm0-4.282a1.306,1.306,0,1,1-1.306,1.306A1.307,1.307,0,0,1,608.523,299.606Z" transform="translate(-13.85 -3.798)"/>
    <path id="路径_1087" class="cls-2" d="M595.611,299.151l5.512,7.883a.855.855,0,0,0,.067.077c.008.009.015.019.024.028a.821.821,0,0,0,.085.073c.013.01.023.022.036.031h0l.015.009c.019.013.039.022.059.033a.83.83,0,0,0,1.087-.247l5.262-7.526h0l.307-.439a.812.812,0,0,0,.107-.225,7.335,7.335,0,0,0,.431-.906l.017.017a7.309,7.309,0,1,0-13.109.991A.83.83,0,0,0,595.611,299.151Zm6.219-9.471a5.606,5.606,0,0,1,4.726,8.628l0,0-4.75,6.793-4.623-6.611h0a5.629,5.629,0,0,1-.816-1.773l.011-.012a5.61,5.61,0,0,1,5.446-7.03Z" transform="translate(-7.414 2)"/>
  </g>
</svg>
