<svg xmlns="http://www.w3.org/2000/svg" width="28" height="26.405" viewBox="0 0 28 26.405">
  <g id="组_1591" class="cls-1" transform="translate(-436.125 -148.109)">
    <path id="路径_1058" class="cls-2" d="M447.879,171.438h-4.231V155.631h15.806v4.274a.878.878,0,0,0,.878.878h0a.878.878,0,0,0,.878-.878v-4.274a1.756,1.756,0,0,0-1.756-1.756h-4.01v-4.01a1.756,1.756,0,0,0-1.756-1.756H437.881a1.756,1.756,0,0,0-1.756,1.756v15.807a1.756,1.756,0,0,0,1.756,1.756h4.01v4.01a1.756,1.756,0,0,0,1.756,1.756h4.278a.879.879,0,0,0,.866-1.026A.911.911,0,0,0,447.879,171.438Zm-5.988-15.807v10.041h-4.01V149.865h15.807v4.01h-10.04A1.756,1.756,0,0,0,441.891,155.631Z"/>
    <path id="路径_1059" class="cls-2" d="M482.066,186.826c-.006-.018-.009-.038-.017-.056l0,0c-.008-.02-.02-.037-.03-.057a.872.872,0,0,0-.162-.231l0,0-5.069-5.069a.878.878,0,0,0-1.242,0h0a.879.879,0,0,0,0,1.243l3.576,3.576H469.068a.878.878,0,0,0,0,1.757H479.11l-3.569,3.569a.879.879,0,0,0,1.243,1.243l5.041-5.041a.853.853,0,0,0,.241-.927Z" transform="translate(-17.99 -18.537)"/>
  </g>
</svg>
