<svg xmlns="http://www.w3.org/2000/svg" width="26.152" height="28" viewBox="0 0 26.152 28">
  <g id="组_1613" class="cls-1" transform="translate(-436.508 -4.135)">
    <path id="路径_1027" class="cls-2" d="M478.645,35.026a1.077,1.077,0,0,0,1.074,1.074h9.212a1.074,1.074,0,0,0,0-2.147h-9.212A1.077,1.077,0,0,0,478.645,35.026Z" transform="translate(-27.344 -17.728)"/>
    <path id="路径_1028" class="cls-2" d="M488.931,46.1h-9.212a1.074,1.074,0,0,0,0,2.147h9.212a1.074,1.074,0,0,0,0-2.147Z" transform="translate(-27.344 -25.662)"/>
    <path id="路径_1029" class="cls-2" d="M488.931,58.181h-9.212a1.074,1.074,0,0,0,0,2.147h9.212a1.074,1.074,0,0,0,0-2.147Z" transform="translate(-27.344 -33.414)"/>
    <path id="路径_1030" class="cls-2" d="M457.876,6.9a1.753,1.753,0,0,0-1.34-2.768h-18.37A1.753,1.753,0,0,0,436.825,6.9l.041.048,6.251,5.768a1.932,1.932,0,0,1,.612,1.419V26.888a1.673,1.673,0,0,0,.743,1.4l2.246,1.467a.8.8,0,0,0,1.25-.447.877.877,0,0,0-.348-.981l-1.794-1.172a1.023,1.023,0,0,1-.454-.858V16.309h0V13.45a1.931,1.931,0,0,0-.612-1.419l-6.672-6.157a.138.138,0,0,1,.013-.04c.022-.046.042-.046.066-.046h18.37c.024,0,.044,0,.066.046a.139.139,0,0,1,.013.04l-6.82,6.288a1.931,1.931,0,0,0-.612,1.419v1.364h0V26.368h0v4.908a.821.821,0,1,0,1.641,0V14.264a1.931,1.931,0,0,1,.613-1.419l6.393-5.894Z" transform="translate(0)"/>
  </g>
</svg>
