<svg xmlns="http://www.w3.org/2000/svg" width="20.103" height="25.463" viewBox="0 0 20.103 25.463">
  <g id="组_2689" transform="translate(-118.154 -26.256)">
    <path id="路径_1624" d="M136.916,42.339H119.494a1.34,1.34,0,0,1-1.34-1.34V36.978a1.34,1.34,0,0,1,1.34-1.34h5.361V27.6a1.34,1.34,0,0,1,1.34-1.34h4.021a1.34,1.34,0,0,1,1.34,1.34v8.041h5.361a1.34,1.34,0,0,1,1.34,1.34V41A1.34,1.34,0,0,1,136.916,42.339Zm0-5.361h-6.7V27.6h-4.021v9.381h-6.7V41h17.422Z" transform="translate(0 0)"/>
    <path id="路径_1625" d="M170.667,92.171V88.151h6.7V78.769h4.021v9.381h6.7v4.021Z" transform="translate(-51.173 -51.173)" fill="none"/>
    <path id="路径_1626" d="M170.667,656.41h17.422v9.381H170.667Z" transform="translate(-51.173 -614.072)" fill="none"/>
    <path id="路径_1627" d="M136.916,614.619H119.494a1.34,1.34,0,0,1-1.34-1.34V602.238c0-.74.6,1.66,1.34,1.66h17.422c.74,0,1.34-2.4,1.34-1.66v11.041A1.34,1.34,0,0,1,136.916,614.619Zm0-9.381H119.494v8.041h2.68v-3.35a.67.67,0,1,1,1.34,0v3.35h4.021v-4.691a.67.67,0,1,1,1.34,0v4.691H132.9v-3.35a.67.67,0,1,1,1.34,0v3.35h2.68Z" transform="translate(0 -562.899)"/>
  </g>
</svg>
