<svg xmlns="http://www.w3.org/2000/svg" width="28" height="28" viewBox="0 0 28 28">
  <path id="路径_1018" class="cls-1" d="M604.006,13.647a1.554,1.554,0,0,0-1.554-1.508h-1.821a.781.781,0,0,0-.666.372l-.637,1.039a.012.012,0,0,1-.023,0l-1.017-5.333a.781.781,0,0,0-1.505-.1l-2.191,6.481a.012.012,0,0,1-.023,0L591.612,3.025a.813.813,0,0,0-1.48-.194.009.009,0,0,0,0,.006L587.664,17.83a.012.012,0,0,1-.024,0L584.856,5.2a.779.779,0,0,0-.747-.611.759.759,0,0,0-.77.582L580.91,14.5a.012.012,0,0,1-.023,0L580.2,13.2a1.56,1.56,0,0,0-1.378-.83h-1.223a.013.013,0,0,1-.012-.014,12.483,12.483,0,0,1,24.558-1.317.817.817,0,0,0,.589.636.784.784,0,0,0,.948-.928,14.044,14.044,0,0,0-27.664,1.621,1.562,1.562,0,0,0,1.563,1.558h1.233a.012.012,0,0,1,.011.007l1.641,3.1a.78.78,0,0,0,1.444-.168l2.113-8.116a.012.012,0,0,1,.024,0L587,22.182a.782.782,0,0,0,.923.6h0a.777.777,0,0,0,.61-.634l2.478-15.074a.012.012,0,0,1,.024,0l2.684,10.493a.78.78,0,0,0,1.494.056l2.082-6.16a.012.012,0,0,1,.024,0l.884,4.634a.013.013,0,0,0,0,.006.822.822,0,0,0,1.382.007l1.475-2.408a.013.013,0,0,1,.01-.006h1.364l.015.015a12.48,12.48,0,0,1-24.663,2.76.772.772,0,0,0-.757-.6h0a.778.778,0,0,0-.765.938,14.04,14.04,0,0,0,27.745-3.161Z" transform="translate(-576.013 0.198)"/>
</svg>
