<svg xmlns="http://www.w3.org/2000/svg" width="28" height="26.35" viewBox="0 0 28 26.35">
  <g id="组_1607" class="cls-1" transform="translate(-580.151 -154.957)">
    <path id="路径_1111" class="cls-2" d="M604.51,169.669a3.32,3.32,0,1,0-3.2,0l-5.529,15.191a.88.88,0,0,0,1.641.634c0-.011.008-.022.012-.032l1.564-4.3h7.829l1.564,4.3a.88.88,0,0,0,1.653-.6Zm-1.6-4.467a1.561,1.561,0,1,1-1.561,1.561A1.563,1.563,0,0,1,602.906,165.2Zm0,5.212,1.784,4.9h-3.567Zm3.035,9h-6.309l.85-2.336h4.848l.85,2.336Z" transform="translate(-8.719 -4.753)"/>
    <path id="路径_1112" class="cls-2" d="M593.719,169.456a.88.88,0,1,0,1.236-1.252l-.012-.011a4.453,4.453,0,0,1-.068-6.3l.024-.024a.874.874,0,0,0,0-1.232.884.884,0,0,0-1.251.006l-.007.007a6.2,6.2,0,0,0,.048,8.771Z" transform="translate(-6.55 -3.039)"/>
    <path id="路径_1113" class="cls-2" d="M581.911,161.975a7.714,7.714,0,0,1,2.325-5.521.874.874,0,0,0-.01-1.235h0a.879.879,0,0,0-1.238-.013,9.5,9.5,0,0,0-.1,13.436q.1.1.2.2a.883.883,0,0,0,1.232-1.264A7.712,7.712,0,0,1,581.911,161.975Z" transform="translate(0)"/>
    <path id="路径_1114" class="cls-2" d="M626.03,160.651a.885.885,0,0,0-1.251-.018l-.008.008a.874.874,0,0,0,0,1.232,4.452,4.452,0,0,1-.02,6.3l-.024.024a.887.887,0,0,0-.037,1.253l.012.012a.886.886,0,0,0,1.25,0,6.2,6.2,0,0,0,.113-8.77Z" transform="translate(-24.812 -3.039)"/>
    <path id="路径_1115" class="cls-2" d="M635.564,155.4q-.1-.1-.195-.2v0a.88.88,0,0,0-1.238.013h0a.873.873,0,0,0-.012,1.234h0a7.716,7.716,0,0,1,.129,10.912q-.1.1-.207.2a.883.883,0,0,0,1.232,1.264A9.5,9.5,0,0,0,635.564,155.4Z" transform="translate(-30.052 -0.001)"/>
  </g>
</svg>
