<svg xmlns="http://www.w3.org/2000/svg" width="28" height="26.235" viewBox="0 0 28 26.235">
  <g id="组_1590" class="cls-1" transform="translate(-146.05 -148.118)">
    <path id="路径_1052" class="cls-2" d="M174.224,156.217a4.049,4.049,0,1,0-4.05-4.05A4.05,4.05,0,0,0,174.224,156.217Zm0-6.45a2.4,2.4,0,1,1-2.4,2.4A2.4,2.4,0,0,1,174.224,149.766Z" transform="translate(-14.191)"/>
    <path id="路径_1053" class="cls-2" d="M174.224,192.165a4.049,4.049,0,1,0,4.05,4.05A4.05,4.05,0,0,0,174.224,192.165Zm0,6.45a2.4,2.4,0,1,1,2.4-2.4A2.4,2.4,0,0,1,174.224,198.615Z" transform="translate(-14.191 -25.911)"/>
    <path id="路径_1054" class="cls-2" d="M198.432,192.165a4.049,4.049,0,1,0,4.049,4.05A4.05,4.05,0,0,0,198.432,192.165Zm0,6.45a2.4,2.4,0,1,1,2.4-2.4A2.4,2.4,0,0,1,198.432,198.615Z" transform="translate(-28.431 -25.911)"/>
    <path id="路径_1055" class="cls-2" d="M174.16,177.244v.267a.649.649,0,1,0,1.3,0v-.267a4.958,4.958,0,0,0-4.941-4.945h-4.835v-2.321a.824.824,0,1,0-1.647,0V172.3H159.2a4.958,4.958,0,0,0-4.941,4.945v.267a.649.649,0,1,0,1.3,0v-.267A3.644,3.644,0,0,1,159.2,173.6h4.835v3.685a.824.824,0,1,0,1.647,0V173.6h4.835A3.644,3.644,0,0,1,174.16,177.244Z" transform="translate(-4.826 -12.375)"/>
    <path id="路径_1056" class="cls-2" d="M150.1,192.165a4.049,4.049,0,1,0,4.049,4.05A4.049,4.049,0,0,0,150.1,192.165Zm0,6.45a2.4,2.4,0,1,1,2.4-2.4A2.4,2.4,0,0,1,150.1,198.615Z" transform="translate(0 -25.911)"/>
  </g>
</svg>
