<svg xmlns="http://www.w3.org/2000/svg" width="28" height="28" viewBox="0 0 28 28">
  <path id="路径_1051" class="cls-1" d="M30.354,12.8H23.421V5.872a1.756,1.756,0,0,0-1.756-1.756H5.866A1.756,1.756,0,0,0,4.11,5.872V21.679a1.756,1.756,0,0,0,1.756,1.756H12.8V30.36a1.756,1.756,0,0,0,1.756,1.756h15.8A1.756,1.756,0,0,0,32.11,30.36V14.553A1.756,1.756,0,0,0,30.354,12.8Zm-15.8,2.663,6.217,6.22H19.84l-5.286-5.288Zm0,1.867,4.351,4.353h-.931l-3.42-3.422Zm0,1.866,2.486,2.487h-.929l-1.557-1.557Zm0,1.864.622.623h-.622Zm7.112.583-7.084-7.086h.931l6.152,6.155Zm-2.421-7.086,2.421,2.422v.931l-3.353-3.354Zm-1.866,0,4.287,4.288v.931l-5.218-5.22Zm4.287,1.488-1.487-1.488h.939l.548.548ZM12.8,14.553v7.126H5.866V5.872h15.8V12.8H14.554A1.756,1.756,0,0,0,12.8,14.553ZM30.354,30.36h-15.8V23.435h7.112a1.756,1.756,0,0,0,1.756-1.756V14.553h6.933Z" transform="translate(-4.11 -4.116)"/>
</svg>
