<svg xmlns="http://www.w3.org/2000/svg" width="27.999" height="25.236" viewBox="0 0 27.999 25.236">
  <g id="组_1602" class="cls-1" transform="translate(-864.58 -295.194)">
    <path id="路径_1091" class="cls-2" d="M878.675,311.581a3.063,3.063,0,1,0,3.063,3.063A3.063,3.063,0,0,0,878.675,311.581Zm0,4.407a1.344,1.344,0,1,1,1.344-1.344A1.346,1.346,0,0,1,878.675,315.988Z" transform="translate(-6.292 -9.346)"/>
    <path id="路径_1092" class="cls-2" d="M878.227,313.493h0l.317-.452a.855.855,0,0,0,.11-.231,7.506,7.506,0,0,0,.444-.932l.017.018a7.455,7.455,0,0,0-.77-6.933,7.512,7.512,0,0,0-12.739,7.953.842.842,0,0,0,.1.208l5.68,8.113a.868.868,0,0,0,.068.079c.009.009.016.019.025.028a.758.758,0,0,0,.087.075c.013.01.023.022.037.032h0a.153.153,0,0,0,.015.009c.02.013.04.023.061.034a.856.856,0,0,0,1.12-.254l5.423-7.745Zm-1.234-1.234-4.895,6.991-4.764-6.8h0a5.8,5.8,0,0,1-.841-1.824l.012-.012a5.727,5.727,0,0,1-.188-1.435,5.791,5.791,0,1,1,10.67,3.079Z" transform="translate(0 -3.669)"/>
    <path id="路径_1093" class="cls-2" d="M919.36,300.141a1.549,1.549,0,1,0,1.549,1.549A1.55,1.55,0,0,0,919.36,300.141Zm0,2.23a.68.68,0,1,1,.68-.68A.681.681,0,0,1,919.36,302.371Z" transform="translate(-30.451 -2.784)"/>
    <path id="路径_1094" class="cls-2" d="M919.291,296.88a3.8,3.8,0,0,0-6.444,4.022.431.431,0,0,0,.052.105l2.873,4.1a.452.452,0,0,0,.035.04l.013.014a.409.409,0,0,0,.044.038l.018.016h0l.008,0a.344.344,0,0,0,.031.017.433.433,0,0,0,.567-.129l2.743-3.918h0l.16-.229a.433.433,0,0,0,.056-.117,3.857,3.857,0,0,0,.224-.471l.009.009a3.772,3.772,0,0,0-.389-3.507Zm-.684,3.692-2.476,3.536-2.41-3.441h0a2.936,2.936,0,0,1-.425-.922l.006-.006a2.905,2.905,0,0,1-.095-.726,2.929,2.929,0,1,1,5.4,1.558Z" transform="translate(-27.365 0)"/>
    <path id="路径_1095" class="cls-2" d="M897.067,323.887c-.1-1.261,2.778-1.642,4.521-1.757a.118.118,0,0,0,0-.235c-.429-.043-.936-.076-1.475-.076a6.44,6.44,0,0,0-4.055,1.1c-2.745,2.364,1.4,3.821,2.34,4.8s1,2.643-3.078,2.714c-.458.008-.9.011-1.325.011-2.005,0-3.621-.079-4.6-.142l-.078,0a1.263,1.263,0,0,0-1.207.985q-.332,1.324-.735,2.627a1.3,1.3,0,0,0,1.185,1.706l.557,0a63.41,63.41,0,0,0,8.682-.6h0c3.137-.767,6.483-3.341,5.011-6.332C901.485,325.766,897.2,325.766,897.067,323.887Zm4.5,7.008a6.275,6.275,0,0,1-4.027,2.715,62.215,62.215,0,0,1-8.417.574h-.329c.247-.806.476-1.628.683-2.446,1.027.064,2.6.135,4.522.135q.65,0,1.35-.012c.984-.017,3.978-.069,4.821-2.091a2.525,2.525,0,0,0,.013-1.886,3.373,3.373,0,0,1,1.334,1.4l.009.019.009.019A1.7,1.7,0,0,1,901.567,330.895Z" transform="translate(-12.969 -15.186)"/>
  </g>
</svg>
