<svg xmlns="http://www.w3.org/2000/svg" width="28" height="28" viewBox="0 0 28 28">
  <g id="组_1588" class="cls-1" transform="translate(-864.04 0.007)">
    <path id="路径_1047" class="cls-2" d="M876.01,59.449h9.123a.932.932,0,0,0,1.038-.754.9.9,0,0,0-.975-.8h-9.123a.933.933,0,0,0-1.038.754A.9.9,0,0,0,876.01,59.449Z" transform="translate(-6.71 -35.333)"/>
    <path id="路径_1048" class="cls-2" d="M882.187,21.265H865.6a1.558,1.558,0,0,0-1.558,1.558V39.4a1.557,1.557,0,0,0,1.558,1.558h16.59a1.557,1.557,0,0,0,1.558-1.558V22.823A1.557,1.557,0,0,0,882.187,21.265Zm0,18.139H865.6V22.823h16.59Z" transform="translate(0 -12.969)"/>
    <path id="路径_1049" class="cls-2" d="M892.812,10.636H875.431a.779.779,0,0,0,0,1.558h16.6a.779.779,0,0,1,.779.779v16.6a.779.779,0,0,0,.779.779h0a.779.779,0,0,0,.779-.779V12.2A1.559,1.559,0,0,0,892.812,10.636Z" transform="translate(-6.48 -6.499)"/>
    <path id="路径_1050" class="cls-2" d="M903.455-.007H886.086a.778.778,0,0,0,0,1.556h16.591a.778.778,0,0,1,.778.778V18.912a.778.778,0,0,0,.778.778h0a.778.778,0,0,0,.778-.778V1.551A1.558,1.558,0,0,0,903.455-.007Z" transform="translate(-12.973 0)"/>
  </g>
</svg>
