<svg xmlns="http://www.w3.org/2000/svg" width="23" height="22.997" viewBox="0 0 23 22.997">
  <g id="项目" transform="translate(-128.474 -128)">
    <path id="路径_2879" d="M139.972,144.157a.6.6,0,0,1-.349-.11l-10.86-7.4a.68.68,0,0,1,0-1.113l10.86-7.4a.615.615,0,0,1,.7,0l10.86,7.4a.68.68,0,0,1,0,1.113l-4.034,2.75a.622.622,0,0,1-.883-.192.682.682,0,0,1,.185-.921l3.217-2.191-9.693-6.607-9.693,6.6,9.693,6.6,3.35-2.285a.622.622,0,0,1,.883.192.682.682,0,0,1-.185.921l-3.7,2.522a.572.572,0,0,1-.346.112Z" transform="translate(0 -0.023)"/>
    <path id="路径_2880" d="M139.972,395.508a.6.6,0,0,1-.349-.11l-10.86-7.4a.68.68,0,0,1,0-1.113l4.034-2.75a.622.622,0,0,1,.883.192.682.682,0,0,1-.185.921l-3.217,2.191,9.693,6.6,9.693-6.6-9.693-6.6-3.35,2.285a.622.622,0,0,1-.883-.192.682.682,0,0,1,.185-.921l3.7-2.522a.615.615,0,0,1,.7,0l10.86,7.4a.68.68,0,0,1,0,1.113l-10.86,7.4a.639.639,0,0,1-.352.107Z" transform="translate(0 -244.511)"/>
    <path id="路径_2881" d="M491.723,136.8a.614.614,0,0,1-.583-.639v-7.524a.585.585,0,1,1,1.165,0v7.524A.614.614,0,0,1,491.723,136.8Zm0,14.2a.614.614,0,0,1-.583-.639v-7.524a.585.585,0,1,1,1.165,0v7.524A.614.614,0,0,1,491.723,151Z" transform="translate(-351.751)"/>
  </g>
</svg>
