<svg xmlns="http://www.w3.org/2000/svg" width="23" height="23" viewBox="0 0 23 23">
  <g id="公开" transform="translate(-85.333 -85.333)">
    <path id="路径_2862" d="M96.833,108.333a11.47,11.47,0,1,1,4.477-.9A11.425,11.425,0,0,1,96.833,108.333Zm0-21.85a10.35,10.35,0,1,0,10.35,10.35A10.362,10.362,0,0,0,96.833,86.483Z"/>
    <path id="路径_2863" d="M199.028,236.27a14.065,14.065,0,0,1-8.924-2.949l.752-.93a13.823,13.823,0,0,0,16.35,0l.752.93A14.09,14.09,0,0,1,199.028,236.27Zm8.175,11.887a13.823,13.823,0,0,0-16.35,0l-.749-.931a14.987,14.987,0,0,1,17.848,0Z" transform="translate(-102.195 -143.442)"/>
    <path id="路径_2864" d="M305.862,113.83a18.646,18.646,0,0,1-2.415-3.362,19.223,19.223,0,0,1-1.655-3.72,15.4,15.4,0,0,1-.755-4.705c0-3.922,1.627-7.6,4.825-10.925l.723.837c-2.979,3.1-4.492,6.491-4.5,10.081a15.984,15.984,0,0,0,2.231,7.789,17.849,17.849,0,0,0,2.268,3.17Z" transform="translate(-209.706 -5.642)"/>
    <path id="路径_2865" d="M498.026,113.923l-.723-.834a18.091,18.091,0,0,0,2.268-3.17,15.994,15.994,0,0,0,2.231-7.789c-.007-3.59-1.52-6.983-4.5-10.081l.723-.837c3.2,3.326,4.82,7,4.825,10.926a15.4,15.4,0,0,1-.755,4.705,19.086,19.086,0,0,1-1.655,3.72A18.682,18.682,0,0,1,498.026,113.923Z" transform="translate(-400.515 -5.734)"/>
    <path id="路径_2866" d="M490.667,106.667h1.049v21.951h-1.049Z" transform="translate(-394.358 -20.809)"/>
    <path id="路径_2867" d="M106.667,490.667h21.951v1.049H106.667Z" transform="translate(-20.809 -394.358)"/>
  </g>
</svg>
