<svg xmlns="http://www.w3.org/2000/svg" width="27.995" height="28" viewBox="0 0 27.995 28">
  <g id="组_1598" class="cls-1" transform="translate(-868.148 -148.085)">
    <path id="路径_1077" class="cls-2" d="M873.022,165.369h-2.141a.878.878,0,0,1-.878-.878v-13.8a.878.878,0,0,1,.878-.878h14.935a.878.878,0,0,1,.878.878v13.8a.878.878,0,0,1-.878.878h-5.5a.9.9,0,0,0-.927.864h0a.9.9,0,0,0,.927.864h6.381a1.8,1.8,0,0,0,1.855-1.728V149.813a1.8,1.8,0,0,0-1.855-1.728H870a1.8,1.8,0,0,0-1.855,1.728v15.556A1.8,1.8,0,0,0,870,167.1h3.02a.864.864,0,0,0,.865-.864h0A.864.864,0,0,0,873.022,165.369Z" transform="translate(0)"/>
    <path id="路径_1078" class="cls-2" d="M904,168.6h-3.213a.865.865,0,1,0,0,1.726h2.334a.878.878,0,0,1,.878.878v13.784a.878.878,0,0,1-.878.878H888.195a.878.878,0,0,1-.878-.878V171.2a.879.879,0,0,1,.878-.878h5.429a.865.865,0,1,0,0-1.726h-6.307a1.794,1.794,0,0,0-1.854,1.726v15.541a1.794,1.794,0,0,0,1.854,1.727H904a1.794,1.794,0,0,0,1.854-1.727V170.323A1.793,1.793,0,0,0,904,168.6Z" transform="translate(-9.713 -11.506)"/>
  </g>
</svg>
