<svg xmlns="http://www.w3.org/2000/svg" width="21.593" height="18.06" viewBox="0 0 21.593 18.06">
  <g id="默认数据" transform="translate(-130.3 -192.8)">
    <path id="路径_1983" d="M149.737,207.326H132.458a2.16,2.16,0,0,1-2.158-2.158V194.958a2.16,2.16,0,0,1,2.158-2.158h17.276a2.16,2.16,0,0,1,2.158,2.158v10.209A2.156,2.156,0,0,1,149.737,207.326Zm-17.279-13.35a.984.984,0,0,0-.982.982v10.209a.984.984,0,0,0,.982.982h17.276a.984.984,0,0,0,.982-.982V194.958a.984.984,0,0,0-.982-.982Z"/>
    <path id="路径_1984" d="M408.488,669.41a.588.588,0,0,1-.588-.588v-3.533a.588.588,0,1,1,1.177,0v3.533A.588.588,0,0,1,408.488,669.41Zm4.713,0a.588.588,0,0,1-.588-.588v-3.533a.588.588,0,1,1,1.177,0v3.533A.588.588,0,0,1,413.2,669.41Z" transform="translate(-269.747 -458.55)"/>
    <path id="路径_1985" d="M282.254,790.777H269.688a.588.588,0,1,1,0-1.177h12.566a.588.588,0,1,1,0,1.177Z" transform="translate(-134.873 -579.917)"/>
    <path id="路径_1986" d="M324.178,325.553h-1.963a.588.588,0,0,1-.588-.588v-6.676a.588.588,0,0,1,.588-.588h1.963a.588.588,0,0,1,.588.588v6.676A.588.588,0,0,1,324.178,325.553Zm-1.375-1.18h.786v-5.5H322.8Zm-2.552,1.18h-1.963a.588.588,0,0,1-.588-.588v-2.356a.588.588,0,0,1,.588-.588h1.963a.588.588,0,0,1,.588.588v2.356A.588.588,0,0,1,320.252,325.553Zm-1.375-1.18h.786V323.2h-.786Zm9.228,1.18h-1.963a.588.588,0,0,1-.588-.588v-4.32a.588.588,0,0,1,.588-.588H328.1a.588.588,0,0,1,.588.588v4.32A.588.588,0,0,1,328.1,325.553Zm-1.375-1.18h.786v-3.14h-.786Z" transform="translate(-182.099 -121.367)"/>
  </g>
</svg>
