<svg xmlns="http://www.w3.org/2000/svg" width="25.215" height="27.997" viewBox="0 0 25.215 27.997">
  <path id="路径_1073" class="cls-1" d="M744.122,161.546a5.209,5.209,0,0,0-4.138,2.045l-5.631-3.251a5.173,5.173,0,0,0-.13-3.372l6.264-3.617a.822.822,0,0,0,.108-.078,5.251,5.251,0,1,0-1.112-1.248l-6.085,3.513a5.224,5.224,0,1,0,.233,6.289l5.567,3.214a5.22,5.22,0,1,0,4.924-3.5Zm-.24-15.9a3.573,3.573,0,1,1-3.573,3.573A3.576,3.576,0,0,1,743.882,145.645Zm-14.531,16.767a3.575,3.575,0,1,1,3.285-2.17c-.01.014-.021.027-.031.042a.837.837,0,0,0-.073.171A3.573,3.573,0,0,1,729.352,162.412Zm14.77,7.93a3.573,3.573,0,1,1,3.573-3.573A3.577,3.577,0,0,1,744.122,170.342Z" transform="translate(-724.129 -143.995)"/>
</svg>
