<svg xmlns="http://www.w3.org/2000/svg" width="23.602" height="20.979" viewBox="0 0 23.602 20.979">
  <g id="自有" transform="translate(-132.456 -170.667)">
    <path id="路径_2871" d="M134.469,292.252a2.008,2.008,0,1,1,2.013-2.008A2.013,2.013,0,0,1,134.469,292.252Zm0-2.707a.7.7,0,1,0,.705.7.7.7,0,0,0-.705-.7Zm0,12.447a2.008,2.008,0,1,1,2.013-2.008A2.013,2.013,0,0,1,134.469,301.993Zm0-2.707a.7.7,0,1,0,.7.7A.7.7,0,0,0,134.469,299.286Z" transform="translate(0 -113.957)"/>
    <path id="路径_2872" d="M261.549,343.191h-7.666l-7.34-9.743h-4.292v-1.311H247.2l7.34,9.743h7.01Z" transform="translate(-106.422 -156.507)"/>
    <path id="路径_2873" d="M247.2,343.191h-4.947V341.88h4.292l7.34-9.743h7.666v1.311h-7.01Z" transform="translate(-106.422 -156.507)"/>
    <path id="路径_2874" d="M790.043,274.377l.925-.929,2.468,2.456-.925.929Z" transform="translate(-637.379 -99.622)"/>
    <path id="路径_2875" d="M790.027,325.785l2.468-2.456.925.929-2.468,2.456Zm0,6.683.925-.929,2.468,2.456-.925.929Z" transform="translate(-637.364 -147.97)"/>
    <path id="路径_2876" d="M272.961,187.556l2.468-2.456.925.929-2.468,2.456ZM271.344,175.1l-.463-.463a9.166,9.166,0,0,0-12.919,0l-.463.463-.924-.929.463-.463a10.468,10.468,0,0,1,14.772,0l.463.463-.929.929Zm-6.926,16.541a10.432,10.432,0,0,1-7.386-3.045l-.463-.463.924-.929.463.463a9.166,9.166,0,0,0,12.919,0l.463-.463.924.929-.463.463a10.432,10.432,0,0,1-7.38,3.045Z" transform="translate(-120.298 0)"/>
  </g>
</svg>
