<svg xmlns="http://www.w3.org/2000/svg" width="23" height="23" viewBox="0 0 23 23">
  <g id="临时" transform="translate(-85.333 -84.385)">
    <path id="路径_2895" d="M96.833,85.535a10.325,10.325,0,1,1-4.03.815,10.283,10.283,0,0,1,4.03-.815m0-1.15a11.5,11.5,0,1,0,11.5,11.5,11.5,11.5,0,0,0-11.5-11.5Z" transform="translate(0 0)"/>
    <path id="路径_2896" d="M215.469,207.07a.574.574,0,0,1-.577-.569,7.266,7.266,0,0,0-7.313-7.2,7.431,7.431,0,0,0-3.469.859.583.583,0,0,1-.783-.23.565.565,0,0,1,.234-.771,8.592,8.592,0,0,1,4.018-1,8.47,8.47,0,0,1,5.986,2.444,8.208,8.208,0,0,1,2.481,5.9.574.574,0,0,1-.577.569Zm-15.781,0a.574.574,0,0,1-.577-.569,8.24,8.24,0,0,1,1.093-4.1.583.583,0,0,1,.788-.215.565.565,0,0,1,.218.776,7.133,7.133,0,0,0-.944,3.54.574.574,0,0,1-.577.569Zm7.916-1.453a.885.885,0,1,1-.9.884.892.892,0,0,1,.9-.884m0-1.137a2.022,2.022,0,1,0,2.053,2.022A2.037,2.037,0,0,0,207.6,204.48Z" transform="translate(-110.745 -110.746)"/>
    <path id="路径_2897" d="M289.082,289.65a.564.564,0,0,1-.4-.167l-4.068-4.068a.568.568,0,1,1,.8-.8l4.068,4.068a.569.569,0,0,1-.4.97Z" transform="translate(-193.727 -194.649)"/>
  </g>
</svg>
