<svg xmlns="http://www.w3.org/2000/svg" width="28" height="28" viewBox="0 0 28 28">
  <g id="组_1609" class="cls-1" transform="translate(-355.642 -215.997)">
    <path id="路径_1125" class="cls-2" d="M386.352,231.909a.875.875,0,0,0-.875.875v6.125a.875.875,0,0,0,.875.875h6.125a.875.875,0,0,0,.875-.875h0a.875.875,0,0,0-.875-.875H388.1a.875.875,0,0,1-.875-.875v-4.375A.875.875,0,0,0,386.352,231.909Z" transform="translate(-16.71 -8.912)"/>
    <path id="路径_1126" class="cls-2" d="M369.642,216a14,14,0,0,0-14,14h0a.867.867,0,0,0,.019.18c0,.019.012.037.017.056a.871.871,0,0,0,.036.112c.008.019.02.036.029.054a.885.885,0,0,0,.055.1c.011.016.025.029.037.045a.867.867,0,0,0,.076.086c.013.012.027.022.041.034a.9.9,0,0,0,.1.073c.014.009.029.015.044.024a.88.88,0,0,0,.112.054c.015.006.031.009.046.015a.912.912,0,0,0,.126.031c.015,0,.03,0,.046,0,.031,0,.062.009.094.009h1.75a.875.875,0,0,0,.875-.875h0a.875.875,0,0,0-.875-.875h-.84a12.248,12.248,0,1,1,13.09,13.091v-.841a.875.875,0,1,0-1.75,0v1.75a.832.832,0,0,0,.01.095c0,.018,0,.035.005.052a.892.892,0,0,0,.031.119c.005.017.009.035.016.051a.869.869,0,0,0,.053.107c.009.016.016.032.026.048a.956.956,0,0,0,.07.092c.012.015.023.03.036.044a.9.9,0,0,0,.084.073c.016.013.03.027.047.038a.852.852,0,0,0,.1.055c.018.01.036.022.055.03a.871.871,0,0,0,.112.036c.019.005.036.013.055.017a.862.862,0,0,0,.179.019,14,14,0,1,0,0-28Z" transform="translate(0 0)"/>
    <path id="路径_1127" class="cls-2" d="M358.417,254.289l-.005-.021a.838.838,0,0,0-.97-.606l-.1.02a.84.84,0,0,0-.65,1.044l.007.027a.841.841,0,0,0,1.073.58l.1-.032A.837.837,0,0,0,358.417,254.289Z" transform="translate(-0.571 -21.087)"/>
    <path id="路径_1128" class="cls-2" d="M361.253,261.19a.836.836,0,0,0-1.095-.328l-.065.032a.839.839,0,0,0-.352,1.173l.021.036a.839.839,0,0,0,1.2.275l.06-.04a.835.835,0,0,0,.255-1.113Z" transform="translate(-2.232 -25.079)"/>
    <path id="路径_1129" class="cls-2" d="M371.863,271.793l-.028-.016a.839.839,0,0,0-1.12.259l-.038.056a.84.84,0,0,0,.277,1.193l.035.02a.839.839,0,0,0,1.175-.355l.03-.062A.839.839,0,0,0,371.863,271.793Z" transform="translate(-8.342 -31.177)"/>
    <path id="路径_1130" class="cls-2" d="M378.854,274.677l-.024-.006a.839.839,0,0,0-1.01.542l-.023.067a.84.84,0,0,0,.577,1.08l.032.008a.839.839,0,0,0,1.04-.639l.014-.068A.84.84,0,0,0,378.854,274.677Z" transform="translate(-12.384 -32.846)"/>
    <path id="路径_1131" class="cls-2" d="M365.915,267.174a.84.84,0,0,0-1.15-.039l-.051.045a.843.843,0,0,0-.039,1.229l.012.012a.843.843,0,0,0,1.218-.029l.045-.05a.84.84,0,0,0-.024-1.157Z" transform="translate(-4.921 -28.524)"/>
  </g>
</svg>
