<svg xmlns="http://www.w3.org/2000/svg" width="28" height="27.989" viewBox="0 0 28 27.989">
  <path id="路径_1627" class="cls-1" d="M318.371,12.789h-6.933V5.868a1.756,1.756,0,0,0-1.756-1.756h-15.8a1.756,1.756,0,0,0-1.756,1.756v15.8a1.755,1.755,0,0,0,1.756,1.756h6.933v6.922a1.756,1.756,0,0,0,1.756,1.756h15.8a1.738,1.738,0,0,0,.73-.164l.023.012-.009-.019a1.751,1.751,0,0,0,1.011-1.584v-15.8A1.756,1.756,0,0,0,318.371,12.789Zm0,2.383-.628-.628h.628Zm-15.8,9.365,5.808,5.808h-.935l-4.873-4.873Zm0,1.866,3.942,3.942h-.934l-3.008-3.008Zm2.077,3.942h-.934L302.571,29.2v-.934Zm-2.077-.212.212.212h-.212Zm-1.939-8.465-6.75-6.75v-.935l7.678,7.678h-.745v.007ZM314.9,30.345,293.883,9.33V8.4l21.95,21.95Zm-1.865,0L293.883,11.2v-.934l20.084,20.084Zm-19.15-10.766,2.089,2.089h-.934l-1.154-1.154Zm0-.931v-.934l3.954,3.954H296.9Zm0-1.865v-.934l5.819,5.819h-.934Zm8.689,4.884v-.007h-.08l-8.609-8.608v-.926L312.1,30.345h-.926l-8.6-8.6v-.075Zm14.2,8.677L293.883,7.46V6.53L317.7,30.345ZM294.152,5.868h.932l23.288,23.288v.932Zm1.863,0h.93l21.426,21.426v.93Zm22.357,20.491L297.88,5.868h.934l19.557,19.557Zm-10.346-12.2a.214.214,0,0,1-.014-.021l-8.266-8.267h.935l9.029,9.029H309.7l1.168,1.168v0l.007.007v0l7.5,7.5V24.5Zm1.657-5.812-2.475-2.475h.938L309.683,7.4Zm0,.931v.935l-4.34-4.341h.934Zm0,1.866v.934l-6.206-6.206h.935Zm1.188,3.988-.58-.58h.923l7.158,7.158v.93l-7.5-7.5v0Zm7.5,3.767-4.349-4.349h.934l3.415,3.415Zm0,.931v.935l-6.215-6.215h.934ZM309.681,13v.934l-8.07-8.07h.934Zm8.69,4.026-2.484-2.484h.925l1.559,1.559ZM309.683,6.474l-.606-.606h.606Zm-15.8,14.971.223.223h-.223Zm8.691,1.979v-.749l7.671,7.671h-.934l-6.739-6.739v-.183Z" transform="translate(-292.127 -4.112)"/>
</svg>
