<?xml version="1.0" encoding="utf-8"?>
<!-- Generator: Adobe Illustrator 24.1.0, SVG Export Plug-In . SVG Version: 6.00 Build 0)  -->
<svg version="1.1" id="图层_1" xmlns="http://www.w3.org/2000/svg" xmlns:xlink="http://www.w3.org/1999/xlink" x="0px" y="0px"
	 viewBox="0 0 17.8 15.8" style="enable-background:new 0 0 17.8 15.8;" xml:space="preserve">
<g id="组_5509" transform="translate(-954.293 -449.294)">
	<g id="组_5508" transform="translate(2.994 -0.888)">
		<path class="st0" d="M962.5,458.1C962.5,458.1,962.5,458.1,962.5,458.1c-0.2,0-0.3-0.1-0.4-0.2l-4.3-5.5l-5.4,5.1
			c-0.2,0.2-0.5,0.2-0.7,0s-0.2-0.5,0-0.7l5.8-5.5c0.1-0.1,0.2-0.1,0.4-0.1c0.1,0,0.3,0.1,0.4,0.2l4.3,5.5l5.5-6.3
			c0.2-0.2,0.5-0.2,0.7,0c0.2,0.2,0.2,0.5,0,0.7l-5.9,6.7C962.8,458,962.6,458.1,962.5,458.1z"/>
		<rect x="951.9" y="460.1" class="st0" width="1" height="5.9"/>
		<rect x="957" y="456.1" class="st0" width="1" height="9.9"/>
		<rect x="961.9" y="460.1" class="st0" width="1" height="5.9"/>
		<rect x="967" y="456.1" class="st0" width="1" height="10"/>
	</g>
</g>
</svg>
